Coordinates
version=1
nRows=30
nColumns=19
inDegrees=yes

Units are S.I. units (second, meters, Newtons, ...)
If the header above contains a line with 'inDegrees', this indicates whether rotational values are in degrees (yes) or radians (no).

endheader
time	pelvis_tilt	pelvis_list	pelvis_rotation	pelvis_tx	pelvis_ty	pelvis_tz	hip_flexion_r	hip_adduction_r	hip_rotation_r	knee_angle_r	knee_angle_r_beta	ankle_angle_r	hip_flexion_l	hip_adduction_l	hip_rotation_l	knee_angle_l	knee_angle_l_beta	ankle_angle_l
     12.03333333	     -5.12378154	     -8.44074377	     -6.01066348	      2.18104244	      0.96306044	      1.08036968	     31.74564361	     11.01528446	    -22.35221461	     22.75686892	      0.39718229	     -3.57877479	    -17.72677883	    -13.55781328	    -23.11899252	     68.37067625	      1.19329341	    -15.37952169
     12.04000000	     -4.60906599	     -9.18447042	     -5.91537003	      2.18079195	      0.95924911	      1.08094246	     30.39466469	     11.51779768	    -24.29342023	     24.06379527	      0.41999246	     -2.37532689	    -16.62623885	    -15.16990795	    -22.54540233	     73.10095615	      1.27585237	    -14.66662767
     12.04666667	     -4.19958891	     -9.89297967	     -5.79709338	      2.18023102	      0.95510134	      1.08116803	     29.16237946	     11.92534934	    -26.01718978	     25.68463380	      0.44828143	     -0.75783085	    -15.16399541	    -16.63070591	    -21.59549309	     77.77049333	      1.35735117	    -13.82507602
     12.05333333	     -3.91812281	    -10.50006612	     -5.70845701	      2.17929335	      0.95071622	      1.08107012	     28.08277415	     12.20418453	    -27.38372098	     27.57887776	      0.48134222	      1.22937066	    -13.30018123	    -17.83063439	    -20.30658492	     82.34098901	      1.43712137	    -12.90029437
     12.06000000	     -3.43894906	    -11.06400238	     -5.86548544	      2.17795244	      0.94654390	      1.08081386	     26.77950491	     12.52438140	    -28.06097432	     29.67915445	      0.51799896	      3.60254949	    -11.58673538	    -18.77937726	    -19.14236870	     86.67178122	      1.51270795	    -11.87363357
     12.06666667	     -3.57414391	    -11.46580886	     -5.67446358	      2.17616313	      0.94196219	      1.07997045	     26.15094684	     12.52773210	    -28.82653720	     31.79029630	      0.55484534	      5.92829751	     -8.62238486	    -19.47517969	    -17.02039464	     91.00138640	      1.58827382	    -10.87414698
     12.07333333	     -3.70988714	    -11.69409521	     -5.76273971	      2.17388537	      0.93767272	      1.07911136	     25.51459677	     12.50887337	    -28.80015735	     33.95100614	      0.59255684	      8.48850590	     -5.55299442	    -19.79301695	    -15.05401131	     95.04386705	      1.65882841	     -9.91415073
     12.08000000	     -3.84841228	    -11.86610029	     -5.91376473	      2.17123832	      0.93375258	      1.07808292	     24.84075120	     12.47520625	    -28.37838277	     36.04974774	      0.62918679	     11.02285621	     -2.32287525	    -19.93397617	    -13.06488134	     98.80161031	      1.72441341	     -8.90063268
     12.08666667	     -4.13396669	    -11.90122393	     -6.11697251	      2.16827280	      0.93017139	      1.07702079	     24.26542525	     12.36747214	    -27.59442198	     37.99881985	      0.66320452	     13.45496654	      1.25673513	    -19.85077431	    -11.02443553	    102.25261658	      1.78464483	     -7.93179189
     12.09333333	     -4.53434230	    -11.80529807	     -6.33457725	      2.16504000	      0.92702371	      1.07590254	     23.73216614	     12.18609483	    -26.52222915	     39.74146832	      0.69361947	     15.76495681	      5.13504640	    -19.55227617	     -8.95085164	    105.33617078	      1.83846300	     -7.06796845
     12.10000000	     -4.95489242	    -11.60520261	     -6.52077892	      2.16175270	      0.92439276	      1.07481254	     23.09148373	     11.93237943	    -25.28463163	     41.21636075	      0.71936120	     17.83411047	      9.14248403	    -19.11664396	     -6.92003882	    107.99029080	      1.88478613	     -6.24720711
     12.10666667	     -5.38675999	    -11.29109139	     -6.58208663	      2.15845776	      0.92231895	      1.07366545	     22.31871993	     11.54914906	    -24.05507348	     42.37977970	      0.73966669	     19.65327496	     13.29237590	    -18.49142631	     -4.85468283	    110.18521313	      1.92309476	     -5.49728375
     12.11333333	     -5.76575533	    -10.86739844	     -6.49643093	      2.15543252	      0.92090368	      1.07252625	     21.29332190	     11.03202364	    -22.90052078	     43.18217420	      0.75367112	     21.16999828	     17.42553123	    -17.68452907	     -2.84084860	    111.85409498	      1.95222224	     -4.81413185
     12.12000000	     -6.13145298	    -10.34315801	     -6.31415106	      2.15268838	      0.92005880	      1.07150964	     20.05563696	     10.41803955	    -21.82300973	     43.61115630	      0.76115827	     22.35983806	     21.52297830	    -16.74268588	     -0.97612015	    112.98162602	      1.97190137	     -4.27269777
     12.12666667	     -6.20233720	     -9.71480051	     -5.86110998	      2.15046974	      0.92013683	      1.07042991	     18.26448853	      9.61392348	    -21.04515914	     43.61258256	      0.76118316	     23.18610689	     25.21002051	    -15.57087919	      0.77729041	    113.51102263	      1.98114108	     -3.75236471
     12.13333333	     -6.04817196	     -9.06426642	     -5.71943940	      2.14885468	      0.92122612	      1.07016755	     15.94165134	      9.01895640	    -19.81230213	     43.08296367	      0.75193957	     23.53739893	     28.26491425	    -14.66558120	      1.81743251	    113.40728810	      1.97933057	     -3.18184502
     12.14000000	     -6.15218314	     -8.11083344	     -4.50725575	      2.14755678	      0.92223204	      1.06870991	     13.81928523	      7.68835324	    -20.14797906	     42.36474067	      0.73940421	     23.53637354	     31.87830498	    -12.74241299	      3.59761961	    112.89455394	      1.97038167	     -2.91455190
     12.14666667	     -6.21224017	     -7.15166543	     -3.64375076	      2.14691160	      0.92398253	      1.06805306	     11.40478342	      6.62525757	    -20.07747271	     41.17589468	      0.71865493	     22.91470093	     34.96429531	    -11.13544850	      4.62747017	    111.79518745	      1.95119411	     -2.57846508
     12.15333333	     -6.17054080	     -6.10811236	     -2.62928207	      2.14681519	      0.92635314	      1.06746429	      8.70054784	      5.53076850	    -20.29089279	     39.60612154	      0.69125722	     21.77695025	     37.65328181	     -9.41320086	      5.39693548	    110.19426628	      1.92325276	     -2.19501993
     12.16000000	     -6.09146028	     -4.99846538	     -1.59749073	      2.14729352	      0.92932878	      1.06704945	      5.80212513	      4.46976226	    -20.66508028	     37.68288447	      0.65769041	     19.94180843	     39.96425780	     -7.71432219	      5.81035895	    108.10040357	      1.88670797	     -1.84558115
     12.16666667	     -5.97537252	     -3.86172942	     -0.60815056	      2.14832725	      0.93286473	      1.06687971	      2.73753239	      3.50484310	    -21.12865632	     35.42333962	      0.61825391	     17.44639078	     41.88078175	     -6.14222315	      5.86587511	    105.55737881	      1.84232381	     -1.44610768
     12.17333333	     -5.84944680	     -2.71701364	      0.21467498	      2.15000549	      0.93691176	      1.06703054	     -0.42751953	      2.64885251	    -21.53644674	     32.86263476	      0.57356118	     14.24458624	     43.41133781	     -4.83700794	      5.48102290	    102.58687871	      1.79047880	     -1.00725908
     12.18000000	     -6.00571823	     -1.63011868	      1.11049591	      2.15215649	      0.94087397	      1.06703517	     -3.30807882	      1.90561490	    -22.22298900	     30.15793545	      0.52635527	     10.41645436	     44.98926447	     -3.59230372	      4.98455276	     99.28793126	      1.73290131	     -0.62721179
     12.18666667	     -6.03186133	     -0.59323069	      1.76149177	      2.15494303	      0.94536666	      1.06740777	     -6.36057708	      1.31285635	    -22.70064183	     27.20017275	      0.47473257	      5.98809380	     46.04723477	     -2.74037824	      4.05097437	     95.62733982	      1.66901193	     -0.11366621
     12.19333333	     -6.06983834	      0.39601619	      2.21683556	      2.15827519	      0.94999940	      1.06799107	     -9.36595844	      0.78907828	    -23.12552644	     24.14779909	      0.42145860	      1.11071868	     46.80106042	     -2.22453447	      2.73472020	     91.66886118	      1.59992345	      0.41161718
     12.20000000	     -6.15871985	      1.33724852	      2.51085157	      2.16201147	      0.95461016	      1.06864490	    -12.22613005	      0.30071995	    -23.48660023	     21.11374072	      0.36850429	     -4.01413098	     47.31570516	     -1.94489998	      1.10954435	     87.44176715	      1.52614674	      0.96348166
     12.20666667	     -6.30177957	      2.17857823	      2.75031903	      2.16604726	      0.95899972	      1.06922617	    -14.91897267	     -0.09920048	    -23.90000556	     18.17041151	      0.31713351	     -9.14534185	     47.64665081	     -1.85459946	     -0.72614635	     83.01292163	      1.44884880	      1.50854243
     12.21333333	     -6.46868597	      2.94570157	      2.90894034	      2.17018896	      0.96313720	      1.06966548	    -17.41205673	     -0.47057149	    -24.29736521	     15.47903079	      0.27016005	    -14.05456636	     47.76954344	     -1.86424422	     -2.74506482	     78.39398404	      1.36823314	      2.03855610
     12.22000000	     -6.65290863	      3.70035937	      2.92257608	      2.17434042	      0.96694474	      1.07004491	    -19.65117501	     -0.93088940	    -24.62617800	     13.22087006	      0.23074771	    -18.42391478	     47.67305242	     -1.97069227	     -5.06378612	     73.59915373	      1.28454756	      2.49191927
     12.22666667	     -6.94248099	      4.33483506	      3.00018448	      2.17823513	      0.97024270	      1.06995595	    -21.50112758	     -1.33625732	    -25.00366217	     11.52643501	      0.20117424	    -22.06269055	     47.54144690	     -1.97227674	     -7.32000382	     68.68255136	      1.19873666	      2.80274840
